# xmcd
#
# Track frame offsets:
#	150
#	18250
#	38252
#	58094
#	77073
#	97691
#	102408
#	122254
#	143028
#	158411
#	178406
#	194479
#	216461
#	238429
#	256955
#	276388
#	296390
#	313753
#	331063
#	345528
#
# Disc length: 4754 seconds
#
# Revision: 1
# Processed by: cddbd v1.4PL0 Copyright (c) Steve Scherf et al.
# Submitted via: audiograbber 1.80.04
#
DISCID=1c129014
DTITLE=Toni Braxton - Snowflakes
DYEAR=2001
DGENRE=Soul
TTITLE0=Toni Braxton - Holiday Celebrate
TTITLE1=Toni Braxton - Snowflakes Of Love
TTITLE2=Toni Braxton - Christmas In Jamaica
TTITLE3=Toni Braxton - Chrismas Time Is Here
TTITLE4=Toni Braxton - Santa Please
TTITLE5=Toni Braxton - Pretty Please
TTITLE6=Toni Braxton - This Time Is Next Year
TTITLE7=Toni Braxton - Have Yourself A Merry Little Christmas
TTITLE8=Toni Braxton - The Cristmas Song
TTITLE9=Toni Braxton - He Wasn't Man Enough
TTITLE10=Toni Braxton - The Head
TTITLE11=Toni Braxton - Spanish Guitar
TTITLE12=Toni Braxton - Just Be A Men About It
TTITLE13=Toni Braxton - Gimmie Some
TTITLE14=Toni Braxton - Gimme Some
TTITLE15=Toni Braxton - Fairy Tale
TTITLE16=Toni Braxton - The Art Of Love
TTITLE17=Toni Braxton - Speaking In Tongucs
TTITLE18=Toni Braxton - Maybe
TTITLE19=Toni Braxton - You've Been Wrong
EXTD=
EXTT0=
EXTT1=
EXTT2=
EXTT3=
EXTT4=
EXTT5=
EXTT6=
EXTT7=
EXTT8=
EXTT9=
EXTT10=
EXTT11=
EXTT12=
EXTT13=
EXTT14=
EXTT15=
EXTT16=
EXTT17=
EXTT18=
EXTT19=
PLAYORDER=
